<svg aria-hidden="true" width="460" height="80" xmlns="http://www.w3.org/2000/svg" viewBox="0 0 460 80"><path d="M78.169 61.535V75.48h-2.817V61.535H70v-2.394h13.521v2.394H78.17zm10.986 8.45c-.845 0-1.831.142-2.676.283-1.69.281-2.254.845-2.254 1.83 0 .987.705 1.69 2.113 1.69.845 0 1.55-.281 2.113-.844.563-.705.986-1.55.845-2.536l-.141-.422zm2.535-1.97v4.365c0 .986.141 2.113.282 3.099h-2.395c-.14-.564-.14-1.127-.14-1.69-.845 1.267-2.395 1.972-3.944 1.83-1.972.282-3.662-1.126-3.944-3.098V72.1c0-1.972 1.127-3.099 4.507-3.662.986-.141 2.113-.282 3.099-.282v-.423c.14-1.126-.704-2.253-1.831-2.394H86.9c-1.126-.14-2.112.704-2.253 1.831v.282h-2.535c.14-2.254 1.69-3.944 4.93-3.944 2.957 0 4.647 1.408 4.647 4.507zm19.296.28v7.184h-2.676v-7.042c0-2.113-.845-2.958-2.113-2.958-1.55 0-2.535 1.267-2.535 3.521v6.338h-2.676v-7.324c0-1.69-.704-2.676-2.113-2.676-1.408 0-2.535 1.408-2.535 3.662v6.338h-2.676v-11.69h2.535v1.408c.704-1.126 1.972-1.69 3.24-1.69 1.549 0 2.817.704 3.52 2.113.705-1.409 2.254-2.254 3.804-2.113 2.676.141 4.225 1.69 4.225 4.93zm4.648 1.41c0 2.534 1.127 4.084 2.817 4.084 1.69 0 2.957-1.55 2.957-4.085s-1.126-4.084-2.957-4.084-2.817 1.408-2.817 4.084zm8.45 0c0 3.802-1.83 6.196-4.93 6.196-1.408 0-2.675-.704-3.38-1.83v5.774H113.1V63.79h2.535v1.549c.704-1.268 2.112-1.972 3.52-1.972 3.1.141 4.93 2.535 4.93 6.338zm3.662-1.268h5.916c.14-1.55-1.127-2.958-2.676-3.099h-.282c-1.55 0-2.676 1.127-2.958 3.099zm5.775 3.52h2.676c-.563 2.395-2.817 4.085-5.352 3.944-3.521 0-5.634-2.535-5.634-6.338 0-3.52 2.113-6.056 5.634-6.056 2.535-.14 4.648 1.55 5.211 3.944.282.845.423 1.83.282 2.817h-8.592c.141 2.676 1.409 3.802 3.1 3.802 1.267 0 2.393-.845 2.675-2.112zm11.127-8.168v2.394c-.282 0-.563-.14-.986-.14-2.113 0-3.24 1.408-3.24 3.802v5.775h-2.676V63.93h2.395v1.69c.704-1.268 1.972-1.972 3.38-1.831.423-.141.704-.141 1.127 0zm2.817 4.648h5.915c.141-1.55-1.126-2.958-2.676-3.099h-.281c-1.55 0-2.677 1.127-2.958 3.099zm5.774 3.52h2.676c-.563 2.395-2.816 4.085-5.352 3.944-3.52 0-5.633-2.535-5.633-6.338 0-3.52 2.112-6.056 5.633-6.056 2.536-.14 4.648 1.55 5.212 3.944.281.845.422 1.83.281 2.817h-8.591c.14 2.676 1.408 3.802 3.098 3.802 1.268 0 2.395-.845 2.676-2.112zm6.48-3.52h5.915c0-1.69-1.268-2.958-2.958-2.958-1.69 0-2.958 1.267-2.958 2.958zm5.633 3.52h2.676c-.563 2.395-2.817 4.085-5.352 3.944-3.521 0-5.634-2.535-5.634-6.338 0-3.52 2.113-6.056 5.634-6.056 2.535-.14 4.648 1.55 5.211 3.944.282.845.423 1.83.282 2.817h-8.592c.141 2.676 1.409 3.802 3.1 3.802 1.267 0 2.393-.845 2.675-2.112zm14.789-3.661v7.183h-2.676v-6.902c0-2.112-.845-2.957-2.395-2.957-1.549 0-2.676 1.126-2.676 3.38v6.479h-2.676v-11.69h2.536v1.549c.704-1.127 2.112-1.831 3.52-1.831 2.677 0 4.367 1.55 4.367 4.789zm14.225 1.69c-.845 0-1.83.14-2.676.282-1.69.281-2.253.845-2.253 1.83 0 .987.704 1.69 2.112 1.69.845 0 1.55-.281 2.113-.844.563-.705.986-1.55.845-2.536v-.422h-.14zm2.535-1.972v4.366c0 .986.141 2.113.282 3.099h-2.394c-.141-.564-.141-1.127-.141-1.69-.845 1.267-2.394 1.972-3.944 1.83-1.972.282-3.662-1.126-3.943-3.098V72.1c0-1.972 1.126-3.099 4.507-3.662.986-.141 2.112-.282 3.098-.282v-.423c.141-1.126-.704-2.253-1.83-2.394h-.423c-1.127-.14-2.113.704-2.254 1.831v.282h-2.535c.14-2.254 1.69-3.944 4.93-3.944 2.957 0 4.647 1.408 4.647 4.507zm19.296.282v7.183h-2.676v-7.042c0-2.113-.845-2.958-2.113-2.958-1.549 0-2.535 1.267-2.535 3.521v6.338h-2.676v-7.324c0-1.69-.704-2.676-2.112-2.676-1.409 0-2.536 1.408-2.536 3.662v6.338h-2.676v-11.69h2.535v1.408c.705-1.126 1.972-1.69 3.24-1.69 1.55 0 2.817.704 3.521 2.113.704-1.409 2.254-2.254 3.803-2.113 2.676.141 4.225 1.69 4.225 4.93zm19.296 0v7.183h-2.676v-7.042c0-2.113-.845-2.958-2.113-2.958-1.55 0-2.535 1.267-2.535 3.521v6.338h-2.676v-7.324c0-1.69-.704-2.676-2.113-2.676-1.408 0-2.535 1.408-2.535 3.662v6.338h-2.676v-11.69h2.535v1.408c.704-1.126 1.972-1.69 3.24-1.69 1.549 0 2.817.704 3.52 2.113.705-1.409 2.254-2.254 3.804-2.113 2.676.141 4.225 1.69 4.225 4.93zm9.014 1.69c-.845 0-1.83.14-2.676.282-1.69.281-2.254.845-2.254 1.83 0 .987.705 1.69 2.113 1.69.845 0 1.55-.281 2.113-.844.563-.705.986-1.55.845-2.536v-.422h-.141zm2.535-1.972v4.366c0 .986.141 2.113.282 3.099h-2.394c-.141-.564-.141-1.127-.141-1.69-.845 1.267-2.395 1.972-3.944 1.83-1.972.282-3.662-1.126-3.944-3.098V72.1c0-1.972 1.127-3.099 4.507-3.662.986-.141 2.113-.282 3.099-.282v-.423c.14-1.126-.704-2.253-1.83-2.394h-.423c-1.127-.14-2.113.704-2.254 1.831v.282h-2.535c.14-2.254 1.69-3.944 4.93-3.944 2.957 0 4.647 1.408 4.647 4.507zm7.747 5.352v2.113c-.423.14-.986.14-1.409.14-2.535 0-3.52-.985-3.52-3.661V65.76h-1.973v-1.972h1.972V60.83h2.676v2.958h2.254v1.972h-2.254v5.915c0 1.268.423 1.831 1.55 1.831.281 0 .422 0 .704-.14zm7.324 0v2.113c-.564.14-.986.14-1.55.14-2.535 0-3.52-.985-3.52-3.661V65.76h-1.973v-1.972h1.972V60.83h2.676v2.958h2.254v1.972h-2.254v5.915c0 1.268.423 1.831 1.55 1.831.422 0 .704 0 .845-.14zm1.267 2.113v-11.69h2.676v11.69h-2.676zm0-13.944V59h2.676v2.535h-2.676zm12.113 13.944l-4.648-5.634v5.634h-2.676V59.14h2.676v9.436l4.366-4.788h3.099l-4.93 5.352 5.352 6.338h-3.239zm5.211-5.775c0 2.535 1.127 4.085 3.099 4.085 1.972 0 2.958-1.55 2.958-4.085s-1.127-4.084-2.958-4.084c-1.831 0-3.099 1.549-3.099 4.084zm8.873 0c0 3.803-2.253 6.197-5.774 6.197s-5.775-2.394-5.775-6.197 2.254-6.197 5.775-6.197c3.52 0 5.774 2.394 5.774 6.197zm8.451-5.915v2.394c-.282 0-.563-.14-.986-.14-2.112 0-3.24 1.408-3.24 3.802v5.775h-2.675V63.93h2.394v1.69c.704-1.268 1.972-1.972 3.38-1.831.423-.141.705-.141 1.127 0zm8.17 11.69l-4.649-5.634v5.634h-2.676V59.14h2.676v9.436l4.366-4.788h2.958l-4.788 5.352 5.352 6.338h-3.24zm5.07-7.042h5.915c.14-1.55-1.127-2.958-2.676-3.099h-.282c-1.549 0-2.676 1.127-2.957 3.099zm5.774 3.52h2.676c-.563 2.395-2.817 4.085-5.352 3.944-3.52 0-5.634-2.535-5.634-6.338 0-3.52 2.113-6.056 5.634-6.056 2.535-.14 4.648 1.55 5.211 3.944.282.845.423 1.83.282 2.817h-8.591c.14 2.676 1.408 3.802 3.098 3.802 1.268 0 2.395-.845 2.676-2.112zm11.268-1.971c-.845 0-1.831.14-2.676.282-1.69.281-2.254.845-2.254 1.83 0 .987.705 1.69 2.113 1.69.845 0 1.55-.281 2.113-.844.563-.705.986-1.55.845-2.536v-.422h-.141zm2.535-1.972v4.366c0 .986.14 2.113.282 3.099h-2.395c-.14-.564-.14-1.127-.14-1.69-.846 1.267-2.395 1.972-3.944 1.83-1.972.282-3.662-1.126-3.944-3.098V72.1c0-1.972 1.127-3.099 4.507-3.662.986-.141 2.113-.282 3.099-.282v-.423c.14-1.126-.704-2.253-1.831-2.394h-.423c-1.126-.14-2.112.704-2.253 1.831v.282h-2.535c.14-2.254 1.69-3.944 4.93-3.944 2.957 0 4.647 1.408 4.647 4.507zm9.437 7.465l-4.648-5.634v5.634h-2.676V59.14h2.676v9.436L340 63.79h2.958l-4.789 5.352 5.352 6.338h-3.24zm5.211-5.775c0 2.535 1.127 4.085 2.958 4.085 1.83 0 2.957-1.55 2.957-4.085s-1.126-4.084-2.957-4.084-2.958 1.549-2.958 4.084zm8.873 0c0 3.803-2.253 6.197-5.774 6.197-3.522 0-5.775-2.394-5.775-6.197s2.253-6.197 5.775-6.197c3.52 0 5.774 2.394 5.774 6.197zm1.409 1.268v-7.183h2.676v6.901c0 2.113.845 2.958 2.394 2.958 1.55 0 2.676-1.127 2.676-3.38v-6.48h2.676v11.69h-2.535V73.93c-.704 1.126-2.113 1.83-3.521 1.83-2.676 0-4.366-1.549-4.366-4.788zM368.31 59.14h2.676V75.62h-2.676V59.14zm4.789 11.83V63.79h2.676v6.901c0 2.113.845 2.958 2.394 2.958 1.55 0 2.676-1.127 2.676-3.38v-6.48h2.676v11.69h-2.535V73.93c-.704 1.126-2.113 1.83-3.521 1.83-2.676 0-4.366-1.549-4.366-4.788zM78.028 38.31v14.084h-2.817V38.31H69.86v-2.395H83.38v2.395h-5.352zm10.986 8.45c-.845 0-1.83.141-2.676.282-1.69.282-2.253.845-2.253 1.831s.704 1.69 2.112 1.69c.845 0 1.55-.281 2.113-.845.563-.704.986-1.549.845-2.535l-.14-.422zm2.535-1.83v4.366c0 .986.141 2.112.282 3.098h-2.394c-.141-.563-.141-1.126-.141-1.69-.845 1.268-2.395 1.972-3.944 1.831-1.972.141-3.803-1.267-3.944-3.24v-.28c0-1.973 1.127-3.1 4.507-3.663.986-.14 2.113-.282 3.1-.282v-.422c.14-1.127-.705-2.254-1.832-2.394h-.422c-1.127-.141-2.113.704-2.254 1.83v.282h-2.535c.14-2.253 1.69-3.943 4.93-3.943 2.957-.141 4.647 1.408 4.647 4.507zm19.296.14v7.184h-2.676V45.21c0-2.112-.845-2.957-2.113-2.957-1.549 0-2.535 1.267-2.535 3.52v6.339h-2.676v-7.324c0-1.69-.704-2.676-2.113-2.676-1.408 0-2.535 1.408-2.535 3.662v6.338h-2.676v-11.69h2.535v1.408c.705-1.127 1.972-1.69 3.24-1.69 1.55 0 2.817.704 3.52 2.113.705-1.409 2.254-2.254 3.804-2.113 2.676.14 4.225 1.83 4.225 4.93zm4.648 1.409c0 2.535 1.127 4.084 2.817 4.084 1.69 0 2.958-1.549 2.958-4.084 0-2.535-1.127-4.085-2.958-4.085-1.831 0-2.817 1.55-2.817 4.085zm8.45 0c0 3.803-1.83 6.197-4.929 6.197-1.408 0-2.676-.704-3.38-1.83v5.774h-2.676V40.563h2.535v1.55c.704-1.268 2.113-1.972 3.521-1.972 3.099.14 4.93 2.535 4.93 6.338zm3.663-1.127h5.915c.141-1.55-1.127-2.958-2.676-3.098h-.282c-1.549 0-2.676.985-2.957 3.098zm5.774 3.521h2.676c-.563 2.395-2.817 4.085-5.352 3.944-3.52 0-5.634-2.535-5.634-6.338 0-3.521 2.113-6.056 5.634-6.056 2.535-.141 4.648 1.549 5.211 3.943.282.845.423 1.831.282 2.817h-8.591c.14 2.676 1.408 3.803 3.098 3.803 1.268-.14 2.254-.986 2.676-2.113zm11.127-8.31v2.395c-.282 0-.563-.141-.986-.141-2.113 0-3.24 1.408-3.24 3.803v5.774h-2.675v-11.69H140v1.69c.704-1.267 1.972-1.971 3.38-1.83.423-.141.705-.141 1.127 0zm2.958 4.79h5.915c.141-1.55-1.126-2.959-2.676-3.1h-.281c-1.69 0-2.817.986-2.958 3.1zm5.634 3.52h2.676c-.564 2.395-2.817 4.085-5.352 3.944-3.522 0-5.634-2.535-5.634-6.338 0-3.521 2.112-6.056 5.634-6.056 2.535-.141 4.647 1.549 5.21 3.943.282.845.423 1.831.282 2.817h-8.591c.14 2.676 1.408 3.803 3.099 3.803 1.549-.282 2.535-.986 2.676-2.113zm6.478-3.52h5.916c0-1.691-1.268-2.959-2.958-2.959-1.69 0-2.958 1.268-2.958 2.958zm5.634 3.52h2.676c-.563 2.395-2.817 4.085-5.352 3.944-3.52 0-5.634-2.535-5.634-6.338 0-3.521 2.113-6.056 5.634-6.056 2.535-.141 4.648 1.549 5.211 3.943.282.845.423 1.831.282 2.817h-8.591c.14 2.676 1.408 3.803 3.098 3.803 1.55-.282 2.535-.986 2.676-2.113zM180 45.211v7.183h-2.676v-6.901c0-2.113-.845-2.958-2.394-2.958-1.55 0-2.676 1.127-2.676 3.38v6.48h-2.677v-11.69h2.536v1.408c.704-1.127 2.112-1.831 3.52-1.831 2.677 0 4.367 1.69 4.367 4.93zm12.817 7.606c-1.127 2.958-2.394 3.944-5.07 3.944-.423 0-.846 0-1.268-.141v-2.113c.422.14.704.14 1.127.14 1.408 0 2.112-.562 2.676-2.112l-4.367-11.83h2.817l2.958 8.732 3.099-8.733h2.676l-4.648 12.113zm5.352-16.902h2.676v16.48h-2.676v-16.48zm4.789 16.48v-11.69h2.676v11.69h-2.676zm0-13.944v-2.536h2.676v2.536h-2.676zM210 46.479c0 2.535 1.127 4.084 2.958 4.084 1.83 0 3.098-1.549 3.098-4.084 0-2.535-1.126-4.085-3.098-4.085S210 43.944 210 46.48zm8.732 0c0 3.803-2.253 6.197-5.774 6.197s-5.775-2.394-5.775-6.197 2.254-6.197 5.775-6.197c3.52 0 5.774 2.394 5.774 6.197zm4.085 0c0 2.535 1.127 4.084 2.817 4.084 1.69 0 2.958-1.549 2.958-4.084 0-2.535-1.127-4.085-2.958-4.085-1.831 0-2.817 1.55-2.817 4.085zm8.591 0c0 3.803-1.83 6.197-4.93 6.197-1.408 0-2.675-.704-3.38-1.83v5.774h-2.675V40.563h2.535v1.55c.704-1.268 2.112-1.972 3.52-1.972 2.959.14 4.93 2.535 4.93 6.338zm1.69 5.915v-11.69h2.677v11.69h-2.676zm0-13.943v-2.536h2.677v2.536h-2.676zm13.803 5.774h-2.535c.141-1.126-.704-1.971-1.83-2.112h-.423c-1.268 0-1.972.563-1.972 1.408s.845 1.268 2.676 1.69c2.113.564 4.507 1.127 4.507 3.803 0 2.113-1.831 3.521-4.93 3.521-3.098 0-5.07-1.408-5.07-4.225H240c-.14 1.127.845 2.113 1.972 2.253h.422c1.409 0 2.113-.563 2.113-1.408 0-1.268-.986-1.409-2.958-1.972-1.972-.563-4.084-.986-4.084-3.521 0-2.113 1.83-3.521 4.648-3.521 2.817 0 4.648 1.55 4.788 4.084zm7.606 6.057v2.112c-.422.141-.986.141-1.408.141-2.536 0-3.522-.986-3.522-3.662v-6.197h-1.971v-1.972h1.971v-2.958h2.677v2.958h2.253v1.972h-2.253v5.916c0 1.267.422 1.83 1.549 1.83.14-.14.563-.14.704-.14zm3.099-3.803c0 2.535 1.126 4.084 3.098 4.084s2.958-1.549 2.958-4.084c0-2.535-1.127-4.085-2.958-4.085-1.83 0-3.098 1.55-3.098 4.085zm8.873 0c0 3.803-2.254 6.197-5.775 6.197-3.52 0-5.774-2.394-5.774-6.197s2.253-6.197 5.774-6.197 5.775 2.394 5.775 6.197zM11 36h13v5H11v-5zm23 5v19h-5V36h18v5H34zm19-5l5 .056V51.53c0 7.551-3.055 14.793-8.494 20.132C44.068 77.001 36.691 80 29 80v-5c6.302-.004 12.343-2.643 16.794-7.023 4.45-4.38 7.217-10.317 7.206-16.504V36zM24 5.298C13.083 7.717 5.337 17.153 5.333 28.038V41H0V28.038C.008 14.292 10.097 2.505 24 0v5.298z"></path></svg>